<?xml version="1.0" standalone="no"?>
<!DOCTYPE svg PUBLIC "-//W3C//DTD SVG 20010904//EN"
 "http://www.w3.org/TR/2001/REC-SVG-20010904/DTD/svg10.dtd">
<svg version="1.0" xmlns="http://www.w3.org/2000/svg"
 width="600.000000pt" height="108.000000pt" viewBox="0 0 600.000000 108.000000"
 preserveAspectRatio="xMidYMid meet">
<metadata>
Created by potrace 1.15, written by Peter Selinger 2001-2017
</metadata>
<g transform="translate(0.000000,108.000000) scale(0.100000,-0.100000)"
fill="#fffff0" stroke="none">
<path d="M2587 823 c-4 -3 -7 -150 -7 -325 l0 -318 30 0 30 0 0 325 0 325 -23
0 c-13 0 -27 -3 -30 -7z"/>
<path d="M4730 560 l0 -260 24 0 c13 0 27 7 30 16 3 9 6 73 6 144 0 107 3 129
16 134 44 17 111 -4 119 -38 3 -12 6 -73 8 -136 l2 -115 30 0 30 0 0 130 c0
188 -21 219 -147 219 l-68 0 0 83 c0 82 0 83 -25 83 l-25 0 0 -260z"/>
<path d="M5475 798 c-3 -13 -4 -129 -3 -258 l3 -235 27 -3 27 -3 3 88 3 88 89
-88 c70 -68 96 -87 118 -87 17 0 28 5 28 13 0 8 -37 52 -82 98 l-83 84 54 50
c29 28 57 49 62 48 5 -2 16 11 24 27 l16 30 -34 0 c-26 0 -42 -8 -68 -36 -33
-34 -111 -94 -123 -94 -3 0 -6 68 -6 150 l0 150 -25 0 c-17 0 -26 -7 -30 -22z"/>
<path d="M287 764 c-4 -4 -7 -16 -7 -26 0 -16 9 -18 68 -18 37 0 73 -4 80 -9
11 -7 13 -41 10 -161 l-3 -152 -28 -24 c-33 -28 -87 -32 -130 -9 -26 14 -28
13 -39 -11 -10 -22 -9 -28 5 -39 27 -20 99 -27 148 -15 24 6 50 12 56 12 7 1
11 3 9 6 -3 2 4 13 14 25 26 28 32 76 28 262 l-3 160 -101 3 c-55 1 -103 0
-107 -4z"/>
<path d="M3210 745 c0 -24 3 -25 60 -25 l60 0 0 -210 0 -210 30 0 30 0 2 208
3 207 63 3 c59 3 63 5 60 25 -3 21 -7 22 -155 25 l-153 3 0 -26z"/>
<path d="M695 648 c-39 -14 -73 -45 -91 -84 -17 -36 -35 -136 -22 -128 4 3 8
-3 8 -12 0 -26 62 -102 95 -116 39 -17 158 -16 179 1 12 10 13 18 5 33 -9 18
-17 19 -63 14 -31 -4 -64 -2 -82 4 -34 13 -73 57 -74 83 0 15 13 17 126 17
l127 0 -7 53 c-4 28 -8 62 -9 74 -1 11 -5 19 -9 16 -5 -2 -8 0 -8 6 0 31 -123
58 -175 39z"/>
<path d="M1070 650 c-19 -5 -39 -6 -45 -3 -5 4 -7 2 -2 -2 4 -5 -5 -21 -19
-36 -24 -25 -25 -30 -15 -62 16 -46 36 -63 106 -87 91 -31 123 -75 73 -101
-21 -11 -107 -8 -154 6 -17 5 -23 1 -27 -17 -4 -15 -1 -27 8 -34 8 -6 13 -13
10 -15 -10 -11 174 -2 207 9 33 12 38 18 43 56 5 32 3 50 -9 68 -9 14 -13 28
-9 33 5 4 2 5 -4 1 -7 -4 -30 5 -50 19 -21 14 -44 25 -51 25 -22 0 -69 28 -76
46 -13 35 13 47 96 42 l78 -5 0 27 c0 25 -4 28 -46 34 -55 7 -67 7 -114 -4z"/>
<path d="M1447 651 c-45 -10 -87 -46 -87 -77 0 -58 37 -93 131 -123 45 -14 82
-52 73 -74 -11 -29 -99 -34 -180 -11 -16 4 -23 0 -27 -18 -9 -32 4 -40 81 -53
57 -10 74 -9 115 6 26 10 51 18 54 18 7 0 12 16 20 69 5 29 0 38 -34 69 -22
20 -66 46 -98 57 -114 41 -95 91 32 83 69 -4 72 -3 78 21 3 13 5 26 3 27 -8 9
-128 13 -161 6z"/>
<path d="M1817 646 c-74 -27 -107 -78 -107 -165 0 -109 57 -175 160 -186 77
-8 114 4 118 39 l4 28 -60 -7 c-78 -9 -127 11 -147 59 -8 20 -15 38 -15 41 0
3 56 5 125 5 l125 0 0 45 c0 49 -34 116 -69 134 -34 18 -95 21 -134 7z"/>
<path d="M3685 649 c-68 -21 -99 -74 -100 -169 0 -74 23 -130 68 -164 38 -28
126 -28 164 0 92 67 98 259 9 313 -39 25 -101 33 -141 20z m104 -66 c55 -45
44 -195 -15 -222 -14 -6 -33 -11 -42 -11 -27 0 -64 30 -58 47 3 8 2 12 -3 9
-13 -8 -21 19 -21 69 0 52 14 93 38 111 24 19 76 17 101 -3z"/>
<path d="M3995 652 l-30 -7 -3 -173 -2 -172 25 0 25 0 0 151 0 150 33 -3 32
-3 3 -77 3 -78 29 0 29 0 3 78 c3 73 4 77 27 80 13 2 28 -2 32 -10 5 -7 9 -75
9 -150 l0 -138 31 0 30 0 -3 155 c-3 145 -4 156 -26 177 -17 18 -31 22 -65 20
-75 -6 -81 -6 -117 0 -19 4 -48 3 -65 0z"/>
<path d="M4451 646 c-24 -8 -53 -24 -65 -35 -13 -12 -26 -18 -31 -14 -4 5 -5
3 -2 -3 4 -7 1 -29 -7 -50 -16 -47 -8 -130 17 -167 9 -15 17 -34 17 -43 0 -10
3 -14 6 -11 4 3 16 1 28 -5 38 -20 90 -28 154 -21 61 6 62 6 62 35 l0 29 -53
-6 c-108 -14 -168 26 -176 117 -6 84 58 135 157 125 49 -5 54 -4 64 19 6 13 9
26 7 29 -13 13 -138 14 -178 1z"/>
<path d="M5158 653 c-23 -3 -28 -10 -28 -32 l0 -28 68 5 c68 4 69 4 90 -26 36
-50 30 -63 -25 -56 -27 3 -56 7 -66 9 -9 2 -15 -1 -11 -6 3 -5 -3 -9 -14 -9
-10 0 -33 -14 -51 -32 -30 -30 -33 -37 -29 -80 3 -27 12 -56 22 -66 9 -10 14
-21 11 -23 -6 -7 26 -9 134 -10 67 0 97 4 103 13 5 7 7 71 6 143 -3 135 -15
174 -55 189 -23 9 -123 15 -155 9z m152 -248 l0 -55 -58 0 c-43 0 -65 5 -80
19 -28 23 -28 39 0 68 18 19 32 23 80 23 l58 0 0 -55z"/>
</g>
</svg>
